<svg xmlns="http://www.w3.org/2000/svg" width="1440" height="1024" viewBox="0 0 1440 1024" role="img" aria-labelledby="title desc">
  <title id="title">NHL GM Command Center team identity revision</title>
  <desc id="desc">A polished dark desktop dashboard for the fictional Buffalo Frost franchise, featuring an original crest, team colors, opponent marks, matchup details, standings context, decisions, injuries, and an offline status.</desc>
  <defs>
    <linearGradient id="bg" x1="0" y1="0" x2="1" y2="1"><stop stop-color="#07111f"/><stop offset="1" stop-color="#111d2f"/></linearGradient>
    <linearGradient id="hero" x1="0" y1="0" x2="1" y2="0"><stop stop-color="#113b66"/><stop offset="0.58" stop-color="#13253c"/><stop offset="1" stop-color="#181e2c"/></linearGradient>
    <filter id="shadow"><feDropShadow dx="0" dy="10" stdDeviation="18" flood-opacity="0.25"/></filter>
  </defs>
  <rect width="1440" height="1024" fill="url(#bg)"/>
  <rect x="0" y="0" width="94" height="1024" fill="#081321"/>
  <circle cx="47" cy="54" r="27" fill="#f4f7fb"/><path d="M31 59 L47 30 L63 59 L53 55 L47 69 L41 55 Z" fill="#0d6fb8"/><text x="47" y="91" text-anchor="middle" fill="#91a0b2" font-family="Arial" font-size="10">FROST</text>
  <g fill="#9aa9bb" font-family="Arial" font-size="11" text-anchor="middle"><text x="47" y="158">HOME</text><text x="47" y="230">ROSTER</text><text x="47" y="302">SCOUT</text><text x="47" y="374">TRADES</text><text x="47" y="446">LEAGUE</text></g>
  <rect x="105" y="24" width="1311" height="170" rx="20" fill="url(#hero)" filter="url(#shadow)"/>
  <circle cx="182" cy="108" r="58" fill="#f5f8fc" stroke="#55b7f3" stroke-width="5"/><path d="M148 118 L181 53 L216 118 L196 109 L182 143 L168 109 Z" fill="#0b6eb6"/><path d="M160 91 L204 91" stroke="#a9d9f7" stroke-width="7"/>
  <text x="266" y="74" fill="#8fcff8" font-family="Arial" font-size="14" font-weight="700" letter-spacing="2">BUFFALO FROST • GENERAL MANAGER</text>
  <text x="266" y="116" fill="#ffffff" font-family="Arial" font-size="34" font-weight="700">Command Center</text>
  <text x="266" y="150" fill="#b9c7d6" font-family="Arial" font-size="15">18–9–3  •  2nd Atlantic  •  W3  •  Harbor Ice Center</text>
  <g font-family="Arial"><text x="882" y="66" fill="#8da0b6" font-size="12">CAP SPACE</text><text x="882" y="94" fill="#fff" font-size="24" font-weight="700">$4.82M</text><text x="1035" y="66" fill="#8da0b6" font-size="12">TOP SCORER</text><text x="1035" y="94" fill="#fff" font-size="19" font-weight="700">E. Novak • 31 PTS</text><text x="1225" y="66" fill="#8da0b6" font-size="12">STARTER</text><text x="1225" y="94" fill="#fff" font-size="19" font-weight="700">M. Vale • .918</text></g>
  <rect x="882" y="120" width="485" height="44" rx="12" fill="#091522" opacity="0.78"/><text x="902" y="148" fill="#dbe8f3" font-family="Arial" font-size="13">Captain: J. Mercer  •  2 injuries  •  Rivalry game in 2 days</text>

  <text x="105" y="236" fill="#ffffff" font-family="Arial" font-size="22" font-weight="700">Next matchup</text>
  <rect x="105" y="254" width="610" height="176" rx="18" fill="#101e30" stroke="#22405c"/>
  <text x="132" y="286" fill="#7f93aa" font-family="Arial" font-size="12" letter-spacing="1">THURSDAY • 7:30 PM • HOME</text>
  <circle cx="190" cy="351" r="43" fill="#f5f8fc"/><path d="M166 359 L190 312 L214 359 L201 353 L190 378 L179 353 Z" fill="#0b6eb6"/>
  <text x="248" y="338" fill="#fff" font-family="Arial" font-size="22" font-weight="700">Buffalo Frost</text><text x="248" y="365" fill="#91a5ba" font-family="Arial" font-size="14">18–9–3 • W3</text>
  <text x="446" y="355" fill="#6f8297" font-family="Arial" font-size="16" font-weight="700">VS</text>
  <circle cx="519" cy="351" r="43" fill="#f8efe5"/><path d="M493 362 Q519 310 545 362 Q520 350 493 362" fill="#b8542d"/><circle cx="520" cy="345" r="10" fill="#f1b04c"/>
  <text x="574" y="338" fill="#fff" font-family="Arial" font-size="19" font-weight="700">Quebec Forge</text><text x="574" y="365" fill="#91a5ba" font-family="Arial" font-size="14">16–11–4 • L1</text>
  <rect x="132" y="391" width="552" height="26" rx="8" fill="#172a40"/><text x="149" y="409" fill="#c4d2df" font-family="Arial" font-size="12">Matchup edge: Frost PK 5th  •  Forge PP 27th  •  Season series 1–0</text>

  <text x="747" y="236" fill="#ffffff" font-family="Arial" font-size="22" font-weight="700">Must decide</text>
  <rect x="747" y="254" width="669" height="176" rx="18" fill="#171d2b" stroke="#6d4f2a"/>
  <rect x="770" y="278" width="5" height="62" rx="2" fill="#f0a33b"/><text x="794" y="297" fill="#f6c477" font-family="Arial" font-size="12" font-weight="700">ROSTER COMPLIANCE • DUE TODAY</text><text x="794" y="324" fill="#fff" font-family="Arial" font-size="17" font-weight="700">Activate a healthy defenseman before advancing</text><text x="794" y="347" fill="#9dafc1" font-family="Arial" font-size="13">22 active players; one lineup slot remains unresolved.</text>
  <rect x="1181" y="286" width="202" height="42" rx="11" fill="#1479bd"/><text x="1282" y="312" text-anchor="middle" fill="#fff" font-family="Arial" font-size="14" font-weight="700">Resolve roster</text>
  <rect x="770" y="366" width="5" height="42" rx="2" fill="#d85555"/><text x="794" y="385" fill="#f19a9a" font-family="Arial" font-size="12" font-weight="700">SCHEDULE INTEGRITY</text><text x="794" y="407" fill="#dbe6f0" font-family="Arial" font-size="13">2026–27 save requires an 84-game schedule.</text>

  <text x="105" y="478" fill="#ffffff" font-family="Arial" font-size="22" font-weight="700">Franchise pulse</text>
  <g font-family="Arial">
    <rect x="105" y="496" width="305" height="190" rx="18" fill="#101e30"/><text x="130" y="530" fill="#8ba0b7" font-size="12">RECENT FORM</text><text x="130" y="562" fill="#fff" font-size="28" font-weight="700">7–2–1</text><text x="130" y="590" fill="#8fcff8" font-size="13">Last 10 • +11 goal differential</text><g font-size="11" font-weight="700"><circle cx="139" cy="628" r="14" fill="#16855b"/><text x="139" y="632" text-anchor="middle" fill="#fff">W</text><circle cx="177" cy="628" r="14" fill="#16855b"/><text x="177" y="632" text-anchor="middle" fill="#fff">W</text><circle cx="215" cy="628" r="14" fill="#a46a1f"/><text x="215" y="632" text-anchor="middle" fill="#fff">OT</text><circle cx="253" cy="628" r="14" fill="#16855b"/><text x="253" y="632" text-anchor="middle" fill="#fff">W</text><circle cx="291" cy="628" r="14" fill="#16855b"/><text x="291" y="632" text-anchor="middle" fill="#fff">W</text></g>
    <rect x="431" y="496" width="305" height="190" rx="18" fill="#101e30"/><text x="456" y="530" fill="#8ba0b7" font-size="12">INJURY REPORT</text><text x="456" y="561" fill="#fff" font-size="17" font-weight="700">A. Varga • D</text><text x="456" y="585" fill="#e99b6c" font-size="13">Upper body • 5–8 days</text><text x="456" y="624" fill="#fff" font-size="17" font-weight="700">R. Cole • LW</text><text x="456" y="648" fill="#e0c06b" font-size="13">Day-to-day • Game-time decision</text>
    <rect x="757" y="496" width="305" height="190" rx="18" fill="#101e30"/><text x="782" y="530" fill="#8ba0b7" font-size="12">ATLANTIC SNAPSHOT</text><text x="782" y="562" fill="#fff" font-size="14" font-weight="700">1  Hamilton Northstars  41</text><text x="782" y="593" fill="#8fcff8" font-size="14" font-weight="700">2  Buffalo Frost       39</text><text x="782" y="624" fill="#dbe5ef" font-size="14">3  Quebec Forge        36</text><text x="782" y="655" fill="#dbe5ef" font-size="14">4  Boston Harbors      34</text>
    <rect x="1083" y="496" width="333" height="190" rx="18" fill="#101e30"/><text x="1108" y="530" fill="#8ba0b7" font-size="12">SCOUTING WATCH</text><circle cx="1130" cy="574" r="19" fill="#283a4d"/><text x="1130" y="580" text-anchor="middle" fill="#fff" font-size="12" font-weight="700">KM</text><text x="1164" y="568" fill="#fff" font-size="15" font-weight="700">K. Miettinen • C</text><text x="1164" y="590" fill="#8fcff8" font-size="12">Confidence 72% • Trending up</text><text x="1108" y="630" fill="#c4d1dd" font-size="13">Deep report due Friday</text><text x="1108" y="654" fill="#8ba0b7" font-size="12">Skating and transition impact unresolved</text>
  </g>

  <text x="105" y="734" fill="#ffffff" font-family="Arial" font-size="22" font-weight="700">League activity</text>
  <rect x="105" y="752" width="1311" height="168" rx="18" fill="#101e30"/>
  <g font-family="Arial"><circle cx="145" cy="796" r="20" fill="#e9edf4"/><text x="145" y="801" text-anchor="middle" fill="#623e8a" font-size="11" font-weight="700">MTL</text><text x="181" y="791" fill="#fff" font-size="14" font-weight="700">Montreal Voyageurs place veteran winger on trade block</text><text x="181" y="813" fill="#8fa2b7" font-size="12">Your pro scout rates the fit as moderate; salary retention may be required.</text><circle cx="145" cy="858" r="20" fill="#f2eee8"/><text x="145" y="863" text-anchor="middle" fill="#a24b34" font-size="11" font-weight="700">QC</text><text x="181" y="853" fill="#fff" font-size="14" font-weight="700">Quebec Forge starting goalie listed as questionable</text><text x="181" y="875" fill="#8fa2b7" font-size="12">Opponent status may change after morning skate.</text></g>
  <rect x="105" y="946" width="1311" height="50" rx="14" fill="#091522" stroke="#263b51"/><circle cx="132" cy="971" r="6" fill="#e8b34d"/><text x="149" y="976" fill="#c5d1dd" font-family="Arial" font-size="13">Offline cache active • Data current through 6:42 AM • Transactions disabled until connection returns</text><rect x="1252" y="956" width="142" height="30" rx="9" fill="#1c3045"/><text x="1323" y="976" text-anchor="middle" fill="#dce7f1" font-family="Arial" font-size="12" font-weight="700">View sync details</text>
</svg>