<svg xmlns="http://www.w3.org/2000/svg" width="390" height="844" viewBox="0 0 390 844" role="img" aria-labelledby="title desc"><title id="title">Northstar Hockey Command Center polished mobile mockup</title><desc id="desc">Mobile command center prioritizing mandatory decisions, compact franchise pulse, scrolling summaries, offline state, and bottom navigation.</desc><defs><linearGradient id="bg" x1="0" y1="0" x2="0" y2="1"><stop stop-color="#07111f"/><stop offset="1" stop-color="#101d30"/></linearGradient><linearGradient id="hero" x1="0" y1="0" x2="1" y2="1"><stop stop-color="#183d6b"/><stop offset="1" stop-color="#0d2748"/></linearGradient><style>.ey{font:700 9px Arial;letter-spacing:1px;fill:#93a9c3}.t{font:700 22px Arial;fill:#f8fbff}.h{font:700 15px Arial;fill:#f8fbff}.b{font:400 12px Arial;fill:#cad6e4}.sm{font:400 10px Arial;fill:#92a6be}.tag{font:700 9px Arial;fill:#fff}.nav{font:600 9px Arial;fill:#9bb0c8}</style></defs><rect width="390" height="844" fill="url(#bg)"/><text x="18" y="28" class="ey">COMMAND CENTER</text><text x="18" y="57" class="t">Sunday, Oct 18</text><text x="18" y="77" class="b">Game day · 2 mandatory decisions</text><circle cx="354" cy="43" r="18" fill="#1d3048"/><text x="354" y="47" class="b" text-anchor="middle">GM</text><rect x="16" y="96" width="358" height="112" rx="16" fill="url(#hero)"/><text x="34" y="120" class="ey">BUFFALO BLADES</text><text x="34" y="149" class="h">6–2–1 · 2nd Atlantic</text><text x="34" y="171" class="b">vs Toronto · 7:00 PM</text><text x="34" y="193" class="sm">Cap $6.42M · Trust 78 · Health 92%</text><text x="16" y="240" class="h">Needs Your Attention</text><text x="374" y="240" class="sm" text-anchor="end">6 total</text><rect x="16" y="255" width="358" height="139" rx="15" fill="#111f31"/><rect x="32" y="271" width="78" height="20" rx="10" fill="#873b3b"/><text x="71" y="285" class="tag" text-anchor="middle">MANDATORY</text><text x="32" y="320" class="h">Set tonight’s eligible lineup</text><text x="32" y="341" class="b">19 eligible players selected.</text><text x="32" y="361" class="sm">Due 5:00 PM · 2026–27 rule check</text><rect x="250" y="349" width="108" height="32" rx="9" fill="#3275bd"/><text x="304" y="369" class="b" text-anchor="middle">Review</text><rect x="16" y="406" width="358" height="119" rx="15" fill="#111f31"/><rect x="32" y="422" width="56" height="20" rx="10" fill="#744f20"/><text x="60" y="436" class="tag" text-anchor="middle">HIGH</text><text x="32" y="469" class="h">84-game schedule mismatch</text><text x="32" y="491" class="b">Season start blocked: schedule has 82.</text><text x="32" y="511" class="sm">Open details →</text><text x="16" y="558" class="h">Franchise Summary</text><rect x="16" y="574" width="170" height="112" rx="14" fill="#111f31"/><text x="31" y="598" class="ey">SCOUTING</text><text x="31" y="627" class="h">3 reports ready</text><text x="31" y="649" class="sm">1 conflicting view</text><text x="31" y="671" class="sm">Open reports →</text><rect x="198" y="574" width="176" height="112" rx="14" fill="#111f31"/><text x="213" y="598" class="ey">CAP &amp; CONTRACTS</text><text x="213" y="627" class="h">$6.42M space</text><text x="213" y="649" class="sm">7 expiring · 2 risks</text><text x="213" y="671" class="sm">View forecast →</text><rect x="16" y="700" width="358" height="48" rx="12" fill="#392b18" stroke="#745b2e"/><text x="30" y="719" class="ey">OFFLINE MODE</text><text x="30" y="738" class="sm">Data from 4:32 PM · Retry connection</text><rect x="0" y="774" width="390" height="70" fill="#07111f"/><line x1="0" y1="774" x2="390" y2="774" stroke="#233650"/><g class="nav"><text x="36" y="811" fill="#fff">● Home</text><text x="116" y="811">Roster</text><text x="198" y="811">Scout</text><text x="272" y="811">Trade</text><text x="340" y="811">More</text></g></svg>