<svg xmlns="http://www.w3.org/2000/svg" width="1440" height="1024" viewBox="0 0 1440 1024" role="img" aria-labelledby="title desc">
<title id="title">Northstar Hockey Command Center polished desktop mockup</title>
<desc id="desc">Data-dense premium dark desktop command center showing franchise pulse, six prioritized decisions, cap, roster health, scouting, league context, timeline, and an offline warning.</desc>
<defs>
 <linearGradient id="bg" x1="0" y1="0" x2="1" y2="1"><stop stop-color="#07111f"/><stop offset="1" stop-color="#101d30"/></linearGradient>
 <linearGradient id="hero" x1="0" y1="0" x2="1" y2="1"><stop stop-color="#183d6b"/><stop offset="1" stop-color="#0d2748"/></linearGradient>
 <filter id="s"><feDropShadow dx="0" dy="10" stdDeviation="14" flood-opacity=".24"/></filter>
 <style>.ey{font:700 11px Arial;letter-spacing:1.2px;fill:#8fa6c2}.t{font:700 27px Arial;fill:#f7fbff}.h{font:700 17px Arial;fill:#f7fbff}.b{font:400 13px Arial;fill:#c8d4e3}.sm{font:400 11px Arial;fill:#8fa6c2}.m{font:700 24px Arial;fill:#fff}.nav{font:600 13px Arial;fill:#b7c7d9}.tag{font:700 10px Arial;letter-spacing:.8px;fill:#fff}</style>
</defs>
<rect width="1440" height="1024" fill="url(#bg)"/><rect width="216" height="1024" fill="#06101c"/><line x1="216" y1="0" x2="216" y2="1024" stroke="#20334c"/>
<text x="26" y="40" class="h">NORTHSTAR</text><text x="26" y="59" class="sm">HOCKEY OPERATIONS</text>
<rect x="16" y="92" width="184" height="42" rx="10" fill="#17375f"/><g class="nav"><text x="29" y="119" fill="#fff">●  Command Center</text><text x="29" y="170">Roster</text><text x="29" y="212">Scouting</text><text x="29" y="254">Trade Center</text><text x="29" y="296">Contracts &amp; Cap</text><text x="29" y="338">Draft War Room</text><text x="29" y="380">Staff</text><text x="29" y="422">League</text><text x="29" y="464">Inbox  3</text></g>
<rect x="20" y="922" width="176" height="68" rx="12" fill="#0f1d2e"/><text x="34" y="948" class="ey">2026–27</text><text x="34" y="972" class="b">Buffalo · GM</text>
<text x="252" y="42" class="ey">COMMAND CENTER</text><text x="252" y="75" class="t">Sunday, October 18</text><text x="252" y="99" class="b">Game day · 6 decisions · 2 mandatory before advance</text>
<rect x="1176" y="34" width="224" height="44" rx="12" fill="#263851"/><text x="1200" y="61" class="b">Advance Day</text><text x="1371" y="61" class="b">→</text>
<rect x="252" y="126" width="1148" height="142" rx="18" fill="url(#hero)" filter="url(#s)"/><text x="278" y="157" class="ey">FRANCHISE PULSE</text><text x="278" y="195" class="t">Buffalo Blades</text><text x="278" y="220" class="b">6–2–1 · 2nd Atlantic · vs Toronto, 7:00 PM</text><text x="278" y="244" class="sm">Owner expectation: qualify for playoffs</text>
<g transform="translate(740 160)"><text class="ey">CAP SPACE</text><text y="35" class="m">$6.42M</text><text y="57" class="sm">$2.15M deadline</text></g><g transform="translate(976 160)"><text class="ey">OWNER TRUST</text><text y="35" class="m">78</text><text y="57" class="sm">Stable</text></g><g transform="translate(1192 160)"><text class="ey">HEALTH</text><text y="35" class="m">92%</text><text y="57" class="sm">2 day-to-day</text></g>
<text x="252" y="307" class="h">Needs Your Attention</text><text x="1398" y="307" class="sm" text-anchor="end">Priority sorted · View all</text>
<g filter="url(#s)"><rect x="252" y="326" width="556" height="168" rx="16" fill="#111f31"/></g><rect x="272" y="346" width="82" height="22" rx="11" fill="#873b3b"/><text x="313" y="361" class="tag" text-anchor="middle">MANDATORY</text><text x="272" y="400" class="h">Set tonight’s eligible lineup</text><text x="272" y="424" class="b">19 eligible players selected; two are questionable.</text><text x="272" y="449" class="sm">Due 5:00 PM · Rule check: 2026–27</text><rect x="654" y="438" width="132" height="38" rx="10" fill="#3275bd"/><text x="720" y="462" class="b" text-anchor="middle">Review lineup</text>
<g filter="url(#s)"><rect x="826" y="326" width="574" height="168" rx="16" fill="#111f31"/></g><rect x="846" y="346" width="72" height="22" rx="11" fill="#744f20"/><text x="882" y="361" class="tag" text-anchor="middle">HIGH</text><text x="846" y="400" class="h">Resolve 84-game schedule mismatch</text><text x="846" y="424" class="b">Save is bound to 2026–27 but schedule contains 82 games.</text><text x="846" y="449" class="sm">Season start blocked · Operations integrity</text><rect x="1250" y="438" width="128" height="38" rx="10" fill="#263851"/><text x="1314" y="462" class="b" text-anchor="middle">Open details</text>
<g filter="url(#s)"><rect x="252" y="514" width="360" height="178" rx="16" fill="#111f31"/></g><text x="272" y="546" class="h">Scouting</text><text x="272" y="573" class="b">3 reports ready</text><text x="272" y="600" class="sm">Mercer confidence ↑ · Varga conflict</text><text x="272" y="627" class="sm">One scout at 90% workload</text><text x="272" y="660" class="b">Open reports →</text>
<g filter="url(#s)"><rect x="632" y="514" width="372" height="178" rx="16" fill="#111f31"/></g><text x="652" y="546" class="h">Cap &amp; Contracts</text><text x="652" y="576" class="b">Current space</text><text x="982" y="576" class="b" text-anchor="end">$6.42M</text><text x="652" y="605" class="b">Expiring</text><text x="982" y="605" class="b" text-anchor="end">7</text><text x="652" y="634" class="b">Arbitration risk</text><text x="982" y="634" class="b" text-anchor="end">2</text><text x="652" y="664" class="sm">View cap forecast →</text>
<g filter="url(#s)"><rect x="1024" y="514" width="376" height="178" rx="16" fill="#111f31"/></g><text x="1044" y="546" class="h">Roster Health</text><text x="1044" y="576" class="b">Defense availability</text><text x="1378" y="576" class="b" text-anchor="end">83%</text><text x="1044" y="605" class="b">Goalie readiness</text><text x="1378" y="605" class="b" text-anchor="end">Good</text><text x="1044" y="634" class="b">Fatigue flags</text><text x="1378" y="634" class="b" text-anchor="end">2</text><text x="1044" y="664" class="sm">Review availability →</text>
<g filter="url(#s)"><rect x="252" y="712" width="752" height="186" rx="16" fill="#111f31"/></g><text x="272" y="746" class="h">Today’s Timeline</text><line x1="286" y1="785" x2="958" y2="785" stroke="#29415e" stroke-width="2"/><circle cx="322" cy="785" r="6" fill="#6fa8dc"/><circle cx="520" cy="785" r="6" fill="#6fa8dc"/><circle cx="722" cy="785" r="7" fill="#e2a34b"/><circle cx="920" cy="785" r="6" fill="#71849b"/><text x="290" y="817" class="b">10:00 Staff</text><text x="486" y="817" class="b">1:00 Scouts</text><text x="680" y="817" class="b">5:00 Lineup</text><text x="879" y="817" class="b">7:00 Game</text><text x="272" y="862" class="sm">Mandatory decisions prevent advance; optional items remain visible but subordinate.</text>
<g filter="url(#s)"><rect x="1024" y="712" width="376" height="186" rx="16" fill="#111f31"/></g><text x="1044" y="746" class="h">League Context</text><text x="1044" y="778" class="b">Toronto: Hale on waivers</text><text x="1044" y="807" class="b">Boston: RD available</text><text x="1044" y="836" class="b">Atlantic pace: 101 pts</text><text x="1044" y="867" class="sm">Open league feed →</text>
<rect x="252" y="918" width="1148" height="54" rx="13" fill="#392b18" stroke="#745b2e"/><text x="274" y="940" class="ey">OFFLINE MODE</text><text x="274" y="960" class="b">Latest data from 4:32 PM. Actions requiring server confirmation are disabled.</text><text x="1378" y="951" class="b" text-anchor="end">Retry connection</text>
</svg>